<?xml version="1.0" standalone="no"?>
<!DOCTYPE svg PUBLIC "-//W3C//DTD SVG 20010904//EN"
 "http://www.w3.org/TR/2001/REC-SVG-20010904/DTD/svg10.dtd">
<svg version="1.0" xmlns="http://www.w3.org/2000/svg"
 width="192.000000pt" height="192.000000pt" viewBox="0 0 192.000000 192.000000"
 preserveAspectRatio="xMidYMid meet">

<g transform="translate(0.000000,192.000000) scale(0.100000,-0.100000)"
fill="#000000" stroke="none">
<path d="M120 960 l0 -960 840 0 840 0 0 960 0 960 -840 0 -840 0 0 -960z
m1007 258 c-3 -7 -5 -2 -5 12 0 14 2 19 5 13 2 -7 2 -19 0 -25z m203 15 c0
-15 -53 -47 -88 -53 -4 -1 -16 -9 -27 -17 -11 -9 -1 3 22 25 23 23 51 42 63
42 11 0 20 5 20 10 0 6 2 10 5 10 3 0 5 -8 5 -17z m-740 -18 c0 -7 -6 -17 -12
-23 -10 -8 -14 -3 -15 18 -2 22 2 28 12 23 8 -3 15 -11 15 -18z m110 11 c0 -8
-10 -18 -22 -22 -13 -4 -34 -14 -47 -23 -13 -8 -31 -16 -40 -17 -23 -3 57 64
83 69 11 2 22 5 24 6 1 0 2 -5 2 -13z m74 -2 c10 -10 15 -31 14 -57 -1 -38 -2
-39 -5 -9 -3 18 -13 38 -24 45 -20 12 -26 37 -10 37 5 0 17 -7 25 -16z m446
-9 c0 -6 -10 -20 -22 -31 -13 -11 -17 -12 -11 -3 7 8 10 25 6 37 -4 18 -2 21
11 16 9 -3 16 -12 16 -19z m-117 8 c-7 -2 -13 -14 -14 -26 0 -12 -3 -16 -6 -9
-7 18 4 42 19 41 10 0 10 -2 1 -6z m308 -21 c8 -21 8 -22 -16 -6 -28 18 -33
37 -9 32 9 -2 20 -13 25 -26z m119 18 c0 -5 -7 -7 -15 -4 -8 4 -15 8 -15 10 0
2 7 4 15 4 8 0 15 -4 15 -10z m-663 -42 c-3 -7 -5 -2 -5 12 0 14 2 19 5 13 2
-7 2 -19 0 -25z m140 -5 c-3 -10 -5 -4 -5 12 0 17 2 24 5 18 2 -7 2 -21 0 -30z
m-436 -44 c-12 -45 -12 -57 4 -63 9 -3 25 -1 36 4 15 8 19 7 19 -5 0 -13 -6
-17 -26 -14 -4 0 -10 -4 -14 -10 -4 -8 -16 -2 -33 15 -25 25 -31 37 -28 57 0
4 -4 7 -10 7 -8 0 -8 4 0 13 14 18 57 14 52 -4z m853 -39 c-7 -34 -34 -50 -85
-50 -19 0 -29 5 -29 14 0 22 17 28 39 14 15 -9 23 -9 35 1 19 16 21 38 4 44
-9 3 -7 9 7 20 26 20 38 2 29 -43z m-860 -150 c31 -47 33 -60 7 -36 -17 15
-46 76 -37 76 2 0 15 -18 30 -40z m223 -12 c-3 -7 -5 -2 -5 12 0 14 2 19 5 13
2 -7 2 -19 0 -25z m404 15 c13 -16 12 -17 -3 -4 -10 7 -18 15 -18 17 0 8 8 3
21 -13z m-64 -75 c-3 -7 -5 -2 -5 12 0 14 2 19 5 13 2 -7 2 -19 0 -25z m-17 8
c0 -2 -7 -6 -15 -10 -8 -3 -15 -1 -15 4 0 6 7 10 15 10 8 0 15 -2 15 -4z"/>
</g>
</svg>
